# xmcd
#
# Track frame offsets:
#	150
#	16294
#	33034
#	47122
#	66381
#	82770
#	100417
#	117294
#
# Disc length: 1831 seconds
#
# Revision: 1
# Processed by: cddbd v1.5.1PL2 Copyright (c) Steve Scherf et al.
# Submitted via: audiograbber 1.83.01
#
DISCID=5c072508
DTITLE=MILJANA - Plavo nebo
DYEAR=2003
DGENRE=Pop
TTITLE0=Plavo nebo
TTITLE1=Stranac
TTITLE2=Konacno
TTITLE3=Nikada
TTITLE4=Praznina
TTITLE5=Jasno kao dan
TTITLE6=Tvoje ime
TTITLE7=Zajedno
EXTD=
EXTT0=
EXTT1=
EXTT2=
EXTT3=
EXTT4=
EXTT5=
EXTT6=
EXTT7=
PLAYORDER=
